<svg xmlns="http://www.w3.org/2000/svg" xmlns:xlink="http://www.w3.org/1999/xlink" id="body_1" preserveAspectRatio="xMinYMin meet" viewBox="0 0 793 1121"><defs><clipPath id="1"><path id="" clip-rule="evenodd" transform="matrix(1 0 0 1 0 0)" d="M0 841L0 -0.8900146L0 -0.8900146L595.28 -0.8900146L595.28 -0.8900146L595.28 841L595.28 841L0 841z" /></clipPath></defs><g transform="matrix(1.333333 0 0 1.333333 0 0)"><g clip-path="url(#1)"><path id="78" transform="matrix(1 0 0 -1 0 841)" d="M42.52 703.183L552.756 703.183L552.756 722.18L42.52 722.18z" stroke="none" fill="#E6E6E6" fill-rule="nonzero" /><path id="301" transform="matrix(1 0 0 -1 0 841)" d="M42.52 554.206L552.756 554.206L552.756 573.203L42.52 573.203z" stroke="none" fill="#E6E6E6" fill-rule="nonzero" /><path id="870" transform="matrix(1 0 0 -1 0 841)" d="M42.52 256.758L552.756 256.758L552.756 275.755L42.52 275.755z" stroke="none" fill="#E6E6E6" fill-rule="nonzero" /></g></g></svg>